<svg width="25" height="24" viewBox="0 0 25 24" fill="none" xmlns="http://www.w3.org/2000/svg">
<path d="M9.34156 21C6.91531 21 4.65363 20.2943 2.75 19.0767C4.36624 19.1813 7.21855 18.9308 8.99268 17.2386C6.32381 17.1161 5.1202 15.0692 4.9632 14.1945C5.18997 14.2819 6.27148 14.3869 6.882 14.142C3.81192 13.3722 3.34095 10.678 3.44561 9.85573C4.02125 10.2581 4.99809 10.3981 5.38185 10.3631C2.52109 8.31618 3.55027 5.23707 4.05613 4.57226C6.10912 7.4165 9.1859 9.01393 12.9923 9.10278C12.9205 8.78802 12.8826 8.46032 12.8826 8.12373C12.8826 5.70819 14.8351 3.75 17.2435 3.75C18.5019 3.75 19.6358 4.28457 20.4318 5.13963C21.2727 4.94258 22.5382 4.4813 23.1569 4.0824C22.8451 5.20208 21.8742 6.13612 21.2869 6.48231C21.2821 6.47048 21.2918 6.49408 21.2869 6.48231C21.8028 6.40428 23.1986 6.13603 23.75 5.76192C23.4773 6.39094 22.448 7.4368 21.6033 8.02232C21.7605 14.9535 16.4574 21 9.34156 21Z" fill="#47ACDF"/>
</svg>
